<svg width="30" height="35" viewBox="0 0 30 35" fill="none" xmlns="http://www.w3.org/2000/svg">
<path d="M5.07 26.14C5.05 26.37 5.03 26.71 5.02 26.95C4.89 31.03 3.79 32.9 1.82 34.27L1.09 33.68C1.41 33.51 1.81 33.23 2.11 32.95C3.36 31.82 4.18 30.13 4.2 26.97C4.2 26.74 4.18 26.37 4.14 26.14H5.07ZM8.55 28.22C8.52 28.39 8.5 28.57 8.49 28.7C8.46 29.67 8.33 32.57 7.88 33.53C7.68 33.96 7.36 34.14 6.81 34.14C6.31 34.14 5.73 34.11 5.21 34.07L5.11 33.24C5.65 33.31 6.17 33.36 6.6 33.36C6.88 33.36 7.07 33.27 7.18 33.03C7.56 32.26 7.69 29.8 7.69 28.73H2.42C2.02 28.73 1.62 28.74 1.26 28.77V27.93C1.61 27.96 2.02 27.98 2.41 27.98H7.35C7.62 27.98 7.81 27.96 7.98 27.93L8.55 28.22ZM11.01 29.67C11.32 29.7 11.84 29.73 12.41 29.73C13.14 29.73 17.15 29.73 17.89 29.73C18.39 29.73 18.74 29.69 18.97 29.67V30.65C18.76 30.64 18.34 30.61 17.9 30.61C17.14 30.61 13.15 30.61 12.41 30.61C11.86 30.61 11.33 30.63 11.01 30.65V29.67ZM23.36 33.12C23.36 32.56 23.36 28.14 23.36 27.31C23.36 27.02 23.34 26.58 23.29 26.26H24.27C24.23 26.57 24.2 27 24.2 27.31C24.2 28.86 24.21 32.65 24.21 33.12C24.21 33.44 24.23 33.98 24.27 34.31H23.3C23.35 33.99 23.36 33.49 23.36 33.12ZM24.02 28.89C25.34 29.27 27.36 30.04 28.47 30.58L28.12 31.43C26.98 30.82 25.11 30.11 24.02 29.77V28.89Z" fill="#7F5539"/>
<path d="M23.8256 5.74902C23.7552 5.66127 23.6672 5.59068 23.5677 5.54225C23.4683 5.49382 23.3598 5.46873 23.25 5.46875H8.12625L7.66781 2.8457C7.60502 2.48568 7.42292 2.16003 7.15325 1.92553C6.88359 1.69103 6.54347 1.56255 6.19219 1.5625H4.5C4.30109 1.5625 4.11032 1.64481 3.96967 1.79132C3.82902 1.93784 3.75 2.13655 3.75 2.34375C3.75 2.55095 3.82902 2.74966 3.96967 2.89618C4.11032 3.04269 4.30109 3.125 4.5 3.125H6.1875L8.58375 16.8252C8.65434 17.2315 8.82671 17.6112 9.08344 17.9258C8.72911 18.2705 8.47336 18.7108 8.34455 19.1977C8.21575 19.6846 8.21892 20.1991 8.35371 20.6843C8.48851 21.1694 8.74966 21.6062 9.10821 21.9462C9.46676 22.2861 9.9087 22.516 10.385 22.6103C10.8613 22.7047 11.3534 22.6597 11.8067 22.4805C12.26 22.3013 12.6568 21.9948 12.9531 21.595C13.2494 21.1952 13.4336 20.7178 13.4853 20.2156C13.537 19.7134 13.4541 19.2061 13.2459 18.75H17.5041C17.3363 19.1159 17.2495 19.5164 17.25 19.9219C17.25 20.4627 17.404 20.9913 17.6924 21.441C17.9808 21.8907 18.3908 22.2411 18.8705 22.4481C19.3501 22.6551 19.8779 22.7092 20.3871 22.6037C20.8963 22.4982 21.364 22.2378 21.7312 21.8554C22.0983 21.473 22.3483 20.9857 22.4496 20.4553C22.5508 19.9249 22.4989 19.3751 22.3002 18.8755C22.1015 18.3758 21.7651 17.9488 21.3334 17.6483C20.9017 17.3479 20.3942 17.1875 19.875 17.1875H10.7972C10.6215 17.1875 10.4515 17.1232 10.3167 17.006C10.1818 16.8887 10.0908 16.7259 10.0594 16.5459L9.76219 14.8438H20.6372C21.1641 14.8437 21.6743 14.651 22.0788 14.2992C22.4833 13.9475 22.7564 13.459 22.8506 12.9189L23.9906 6.38965C24.0099 6.2768 24.0051 6.1609 23.9766 6.05019C23.9481 5.93948 23.8966 5.83666 23.8256 5.74902ZM12 19.9219C12 20.1537 11.934 20.3802 11.8104 20.5729C11.6868 20.7656 11.5111 20.9158 11.3055 21.0045C11.1 21.0932 10.8738 21.1164 10.6555 21.0712C10.4373 21.026 10.2368 20.9144 10.0795 20.7505C9.92217 20.5866 9.81502 20.3778 9.77162 20.1505C9.72821 19.9232 9.75049 19.6876 9.83564 19.4734C9.92078 19.2593 10.065 19.0763 10.25 18.9475C10.435 18.8187 10.6525 18.75 10.875 18.75C11.1734 18.75 11.4595 18.8735 11.6705 19.0932C11.8815 19.313 12 19.6111 12 19.9219ZM21 19.9219C21 20.1537 20.934 20.3802 20.8104 20.5729C20.6868 20.7656 20.5111 20.9158 20.3055 21.0045C20.1 21.0932 19.8738 21.1164 19.6555 21.0712C19.4373 21.026 19.2368 20.9144 19.0795 20.7505C18.9222 20.5866 18.815 20.3778 18.7716 20.1505C18.7282 19.9232 18.7505 19.6876 18.8356 19.4734C18.9208 19.2593 19.065 19.0763 19.25 18.9475C19.435 18.8187 19.6525 18.75 19.875 18.75C20.1734 18.75 20.4595 18.8735 20.6705 19.0932C20.8815 19.313 21 19.6111 21 19.9219ZM21.375 12.6396C21.3435 12.8202 21.2521 12.9834 21.1166 13.1007C20.9812 13.218 20.8105 13.2819 20.6344 13.2812H9.48938L8.39906 7.03125H22.3509L21.375 12.6396Z" fill="#7F5539"/>
</svg>
