<svg width="40" height="35" viewBox="0 0 40 35" fill="none" xmlns="http://www.w3.org/2000/svg">
<path d="M1.46 27.15C1.85 27.17 2.11 27.17 2.35 27.17C2.88 27.17 7.23 27.17 7.72 27.17C7.93 27.17 8.29 27.17 8.6 27.16C8.58 27.4 8.58 27.68 8.58 27.93C8.58 28.4 8.58 32.48 8.58 32.86C8.58 33.18 8.59 33.96 8.6 34.07H7.73C7.74 33.96 7.75 33.39 7.75 32.97C7.75 32.6 7.75 27.96 7.75 27.96H2.29C2.29 27.96 2.29 32.56 2.29 32.97C2.29 33.3 2.3 33.94 2.3 34.07H1.45C1.45 33.94 1.47 33.21 1.47 32.86C1.47 32.45 1.47 28.32 1.47 27.93C1.47 27.7 1.47 27.4 1.46 27.15ZM8.08 32.72V33.5H1.89V32.72H8.08ZM17.65 26C17.9 26.36 18.26 26.97 18.46 27.37L17.92 27.62C17.72 27.21 17.38 26.61 17.11 26.23L17.65 26ZM18.74 25.6C19.01 25.97 19.39 26.59 19.58 26.96L19.04 27.2C18.82 26.77 18.5 26.2 18.22 25.83L18.74 25.6ZM18.31 27.99C18.23 28.14 18.13 28.37 18.08 28.53C17.81 29.53 17.19 30.89 16.31 31.97C15.4 33.08 14.2 34 12.32 34.69L11.6 34.04C13.44 33.5 14.68 32.59 15.59 31.53C16.37 30.61 16.98 29.32 17.19 28.41H13.48L13.8 27.69C14.21 27.69 16.68 27.69 16.99 27.69C17.26 27.69 17.48 27.66 17.65 27.59L18.31 27.99ZM14.96 26.48C14.8 26.74 14.62 27.08 14.52 27.27C13.93 28.37 12.88 29.8 11.28 30.87L10.58 30.35C12.31 29.32 13.29 27.87 13.73 26.97C13.83 26.8 13.98 26.43 14.04 26.18L14.96 26.48ZM20.86 30.39C22.59 29.93 24.11 29.22 25.22 28.53C26.27 27.87 27.27 27.01 27.96 26.17L28.63 26.8C27.77 27.69 26.72 28.53 25.55 29.26C24.45 29.94 22.86 30.67 21.25 31.17L20.86 30.39ZM25.06 28.94L25.92 28.68V33.25C25.92 33.62 25.94 34.12 25.99 34.31H25C25.03 34.12 25.06 33.62 25.06 33.25V28.94ZM32.27 26.68C32.97 27.15 34.26 28.19 34.81 28.74L34.19 29.38C33.68 28.86 32.44 27.78 31.69 27.29L32.27 26.68ZM31.41 33.38C33.15 33.12 34.45 32.51 35.4 31.92C36.95 30.95 38.16 29.47 38.74 28.23L39.22 29.09C38.54 30.33 37.38 31.69 35.87 32.64C34.86 33.27 33.6 33.89 31.93 34.2L31.41 33.38Z" fill="#7F5539"/>
<path d="M18 11.4583V8.33331L23 12.5L18 16.6666V13.5416H9V11.4583H18ZM10.458 15.625H12.582C13.28 17.4157 14.5537 18.8981 16.1851 19.8187C17.8165 20.7392 19.7043 21.0407 21.5255 20.6716C23.3468 20.3025 24.9883 19.2856 26.1693 17.795C27.3503 16.3044 27.9975 14.4327 28 12.5C28.001 10.5653 27.3558 8.69043 26.1749 7.19709C24.994 5.70374 23.3511 4.68493 21.528 4.31541C19.7048 3.94588 17.815 4.24867 16.1828 5.17183C14.5505 6.09499 13.2775 7.581 12.582 9.37498H10.458C11.732 5.14894 15.522 2.08331 20 2.08331C25.523 2.08331 30 6.74686 30 12.5C30 18.2531 25.523 22.9166 20 22.9166C15.522 22.9166 11.732 19.851 10.458 15.625Z" fill="#7F5539"/>
</svg>
