<svg width="62" height="53" viewBox="0 0 62 53" fill="none" xmlns="http://www.w3.org/2000/svg">
<g clip-path="url(#clip0_559_1422)">
<path d="M41.5689 28.0469C40.4342 28.0469 39.6007 27.7698 39.0685 27.2154C38.5363 26.6611 38.2701 25.7422 38.2701 24.4585C38.2701 23.4374 38.4459 22.3385 38.7973 21.1618C39.1588 19.9852 39.7313 18.9786 40.5146 18.1423C41.3079 17.2963 42.3121 16.8732 43.5272 16.8732C44.2803 16.8732 44.8878 17.0337 45.3498 17.3546C45.8117 17.6755 46.0427 18.1666 46.0427 18.8279C46.0427 19.2461 45.9573 19.5767 45.7866 19.8198C45.6159 20.0532 45.3498 20.1699 44.9883 20.1699C44.6268 20.1699 44.3405 20.0435 44.1297 19.7907C44.3104 19.7031 44.4711 19.5281 44.6117 19.2655C44.7523 19.003 44.8226 18.7307 44.8226 18.4486C44.8226 18.1861 44.7472 17.9721 44.5966 17.8068C44.456 17.6415 44.2251 17.5588 43.9037 17.5588C43.3715 17.5588 42.8644 17.9138 42.3823 18.6237C41.9004 19.3239 41.5087 20.2088 41.2074 21.2785C40.9162 22.3483 40.7706 23.3791 40.7706 24.371C40.7706 25.11 40.9012 25.6741 41.1622 26.0631C41.4234 26.4521 41.8953 26.6465 42.5782 26.6465C43.1707 26.6465 43.718 26.5201 44.2201 26.2673C44.7221 26.0145 45.154 25.6546 45.5155 25.1878L45.8619 25.3337C45.6109 25.9464 45.2393 26.4569 44.7472 26.8654C44.2552 27.2738 43.728 27.5753 43.1657 27.7698C42.6033 27.9545 42.071 28.0469 41.5689 28.0469Z" fill="#7F5539"/>
<path d="M47.1283 27.8719C46.7968 27.8719 46.5157 27.76 46.2848 27.5364C46.0538 27.3127 45.9383 27.0404 45.9383 26.7195C45.9383 26.3986 46.0538 26.1263 46.2848 25.9026C46.5157 25.6692 46.7968 25.5526 47.1283 25.5526C47.4596 25.5526 47.7409 25.6692 47.9718 25.9026C48.2128 26.1263 48.3333 26.3986 48.3333 26.7195C48.3333 27.0404 48.2128 27.3127 47.9718 27.5364C47.7409 27.76 47.4596 27.8719 47.1283 27.8719Z" fill="#7F5539"/>
<path d="M33.9008 40.1265C32.7661 40.1265 31.9326 39.8493 31.4004 39.295C30.8681 38.7407 30.602 37.8217 30.602 36.5381C30.602 35.517 30.7778 34.4181 31.1292 33.2414C31.4907 32.0647 32.0631 31.0582 32.8464 30.2219C33.6397 29.3759 34.6439 28.9528 35.859 28.9528C36.6121 28.9528 37.2197 29.1133 37.6816 29.4342C38.1436 29.7551 38.3746 30.2462 38.3746 30.9075C38.3746 31.3257 38.2892 31.6562 38.1185 31.8994C37.9478 32.1328 37.6816 32.2495 37.3201 32.2495C36.9586 32.2495 36.6724 32.123 36.4616 31.8702C36.6423 31.7827 36.803 31.6076 36.9436 31.3451C37.0841 31.0825 37.1544 30.8103 37.1544 30.5282C37.1544 30.2657 37.0791 30.0517 36.9285 29.8864C36.7879 29.7211 36.557 29.6384 36.2356 29.6384C35.7033 29.6384 35.1962 29.9934 34.7143 30.7032C34.2322 31.4035 33.8406 32.2884 33.5393 33.3581C33.2481 34.4278 33.1025 35.4586 33.1025 36.4505C33.1025 37.1896 33.233 37.7536 33.4941 38.1427C33.7552 38.5316 34.2272 38.7261 34.91 38.7261C35.5025 38.7261 36.0498 38.5997 36.5519 38.3468C37.054 38.094 37.4859 37.7342 37.8474 37.2674L38.1938 37.4133C37.9428 38.0259 37.5712 38.5365 37.0791 38.9449C36.587 39.3534 36.0599 39.6548 35.4975 39.8493C34.9351 40.0341 34.4029 40.1265 33.9008 40.1265Z" fill="#7F5539"/>
<path d="M39.4601 39.9514C39.1288 39.9514 38.8476 39.8396 38.6166 39.6159C38.3856 39.3922 38.2701 39.12 38.2701 38.7991C38.2701 38.4781 38.3856 38.2059 38.6166 37.9822C38.8476 37.7488 39.1288 37.6321 39.4601 37.6321C39.7915 37.6321 40.0727 37.7488 40.3037 37.9822C40.5446 38.2059 40.6652 38.4781 40.6652 38.7991C40.6652 39.12 40.5446 39.3922 40.3037 39.6159C40.0727 39.8396 39.7915 39.9514 39.4601 39.9514Z" fill="#7F5539"/>
<path d="M26.9799 52.9471C26.3773 52.9471 25.7648 52.6894 25.1421 52.174L25.0217 52.7575H22.8526L24.9012 43.4801L27.1305 43.1884L25.3229 51.3717C25.6041 51.5662 25.8903 51.6635 26.1815 51.6635C26.7539 51.6635 27.256 51.3425 27.6878 50.7007C28.1297 50.0589 28.4711 49.242 28.7121 48.2501C28.9531 47.2582 29.0736 46.2565 29.0736 45.2451C29.0736 44.2921 28.8778 43.5968 28.4861 43.1592C28.1046 42.7119 27.5673 42.4882 26.8744 42.4882C26.1212 42.4882 25.4434 42.634 24.8409 42.9258C24.2484 43.2078 23.7815 43.6162 23.44 44.1511C23.0986 44.686 22.9279 45.3132 22.9279 46.0328C22.9279 46.3927 22.963 46.6455 23.0333 46.7914C23.1036 46.9275 23.1388 47.0053 23.1388 47.0247C22.6166 47.0247 22.2149 46.9178 21.9337 46.7038C21.6626 46.4899 21.527 46.1447 21.527 45.6682C21.527 45.0069 21.7831 44.3797 22.2953 43.7865C22.8074 43.1932 23.4903 42.7167 24.3438 42.3569C25.2074 41.9971 26.1363 41.8172 27.1305 41.8172C28.5062 41.8172 29.5205 42.2111 30.1732 42.9988C30.8259 43.7865 31.1523 44.7929 31.1523 46.0183C31.1523 47.1269 30.9565 48.2209 30.5649 49.3004C30.1833 50.37 29.6711 51.2453 29.0284 51.926C28.3858 52.6067 27.7029 52.9471 26.9799 52.9471Z" fill="#7F5539"/>
<path d="M33.624 52.8158C32.8808 52.8158 32.2934 52.631 31.8616 52.2615C31.4297 51.8919 31.2139 51.3085 31.2139 50.511C31.2139 49.8498 31.3545 49.1155 31.6356 48.3084C31.9168 47.5013 32.3687 46.806 32.9913 46.2225C33.6139 45.6293 34.3972 45.3326 35.3411 45.3326C36.6265 45.3326 37.2692 46.1106 37.2692 47.6666V47.6811C37.2993 47.6909 37.3546 47.6957 37.4349 47.6957C37.7663 47.6957 38.1479 47.6131 38.5797 47.4478C39.0115 47.2727 39.4031 47.0637 39.7546 46.8205L39.8902 47.2144C39.599 47.5159 39.2174 47.7736 38.7454 47.9875C38.2835 48.1917 37.7763 48.3376 37.224 48.4251C37.1437 49.31 36.9378 50.0832 36.6064 50.7445C36.275 51.4057 35.8483 51.9163 35.3261 52.2761C34.8039 52.6359 34.2365 52.8158 33.624 52.8158ZM34.2265 51.503C34.4675 51.503 34.7085 51.3717 34.9495 51.1091C35.1905 50.8368 35.4014 50.4722 35.5822 50.0151C35.7629 49.5483 35.8935 49.0329 35.9738 48.4688C35.7026 48.4105 35.5671 48.2063 35.5671 47.8562C35.5671 47.4575 35.7227 47.1949 36.0341 47.0685C36.014 46.7476 35.9638 46.5288 35.8834 46.4121C35.8031 46.2857 35.6625 46.2225 35.4617 46.2225C35.1302 46.2225 34.8089 46.4559 34.4976 46.9226C34.1863 47.3894 33.9353 47.9486 33.7444 48.6001C33.5537 49.2517 33.4583 49.8255 33.4583 50.3214C33.4583 50.7882 33.5135 51.1042 33.624 51.2696C33.7344 51.4252 33.9353 51.503 34.2265 51.503Z" fill="#7F5539"/>
<path d="M43.482 52.8451C42.8694 52.8451 42.4175 52.6894 42.1263 52.3783C41.8451 52.0574 41.7045 51.6635 41.7045 51.1967C41.7045 50.9925 41.7296 50.7639 41.7798 50.5111C41.83 50.2485 41.8802 49.9957 41.9304 49.7526C41.9907 49.5094 42.0309 49.3539 42.051 49.2858C42.1313 48.9454 42.2066 48.6099 42.2769 48.2793C42.3472 47.9486 42.3823 47.6812 42.3823 47.477C42.3823 46.981 42.2016 46.7331 41.8401 46.7331C41.579 46.7331 41.348 46.8595 41.1472 47.1123C40.9463 47.3554 40.7856 47.6763 40.6652 48.0751L39.6409 52.7575H37.4718L39.0685 45.464H41.2375L41.0719 46.2225C41.574 45.6779 42.1614 45.4056 42.8342 45.4056C43.3464 45.4056 43.7531 45.5418 44.0543 45.8141C44.3556 46.0864 44.5062 46.4997 44.5062 47.054C44.5062 47.336 44.4711 47.6521 44.4008 48.0021C44.3305 48.3425 44.2301 48.7607 44.0995 49.2566C44.0192 49.5581 43.9439 49.8547 43.8736 50.1464C43.8133 50.4284 43.7832 50.6521 43.7832 50.8174C43.7832 51.0119 43.8284 51.1626 43.9188 51.2697C44.0092 51.3766 44.1648 51.4301 44.3857 51.4301C44.687 51.4301 44.928 51.328 45.1087 51.1238C45.2895 50.9098 45.4702 50.584 45.651 50.1464H46.2837C45.9121 51.2161 45.4803 51.9358 44.9882 52.3053C44.5062 52.6651 44.0042 52.8451 43.482 52.8451Z" fill="#7F5539"/>
<path d="M47.1405 52.845C46.6585 52.845 46.2669 52.6991 45.9656 52.4074C45.6744 52.1156 45.5287 51.678 45.5287 51.0945C45.5287 50.8514 45.5689 50.5354 45.6493 50.1464L46.6736 45.4639H48.8426L47.7581 50.4235C47.728 50.5694 47.7129 50.7055 47.7129 50.832C47.7129 51.2307 47.8635 51.43 48.1648 51.43C48.446 51.43 48.687 51.3182 48.8878 51.0945C49.0887 50.8611 49.2493 50.5451 49.3698 50.1464L50.3941 45.4639H52.5632L51.4787 50.4235C51.4385 50.5694 51.4184 50.725 51.4184 50.8903C51.4184 51.0848 51.4636 51.2258 51.554 51.3133C51.6544 51.3911 51.8151 51.43 52.036 51.43C52.3172 51.43 52.5582 51.3133 52.759 51.0799C52.9699 50.8465 53.1356 50.5354 53.2561 50.1464H53.8888C53.5172 51.1967 53.0553 51.9114 52.503 52.2907C51.9607 52.6602 51.4134 52.845 50.8611 52.845C50.4293 52.845 50.0828 52.7283 49.8217 52.4949C49.5707 52.2615 49.42 51.9163 49.3698 51.4592C49.0284 51.9941 48.6669 52.3587 48.2853 52.5532C47.9137 52.7477 47.5321 52.845 47.1405 52.845Z" fill="#7F5539"/>
<path d="M54.7456 52.845C54.2636 52.845 53.872 52.6991 53.5707 52.4074C53.2795 52.1157 53.1339 51.678 53.1339 51.0945C53.1339 50.8514 53.174 50.5354 53.2544 50.1464L54.1581 46.0474H53.6611L53.7816 45.4639H54.2787L54.7305 43.4509L56.9598 43.1592L56.4475 45.4639H57.3514L57.2311 46.0474H56.3272L55.3634 50.4235C55.3228 50.5694 55.303 50.725 55.303 50.8903C55.303 51.0848 55.3481 51.2258 55.4387 51.3133C55.5392 51.3912 55.6995 51.43 55.9203 51.43C56.2119 51.43 56.4826 51.3134 56.7341 51.0799C56.9851 50.8368 57.1658 50.5257 57.2762 50.1464H57.9088C57.5376 51.1967 57.0603 51.9114 56.4777 52.2907C55.8956 52.6602 55.3179 52.845 54.7456 52.845Z" fill="#7F5539"/>
<path d="M58.9873 52.845C58.5051 52.845 58.0987 52.7575 57.7671 52.5825C57.4359 52.3977 57.1899 52.1643 57.029 51.8823C56.8686 51.5905 56.7879 51.2891 56.7879 50.9779C56.7879 50.657 56.8686 50.3798 57.029 50.1464C57.18 49.9033 57.3656 49.7283 57.5864 49.6213C57.9779 48.9405 58.3195 48.255 58.6106 47.5645C58.9022 46.8643 59.1784 46.1107 59.4392 45.3035L61.6688 45.0118C61.7188 46.2565 61.8039 47.6034 61.9247 49.0524C61.9747 49.6359 62 50.0589 62 50.3215C62 50.9147 61.8446 51.4009 61.5332 51.7802C61.2218 52.1594 60.8352 52.4317 60.3734 52.597C59.9214 52.7624 59.4596 52.845 58.9873 52.845ZM58.5051 51.6926C58.8769 51.6926 59.1883 51.5857 59.4392 51.3717C59.6902 51.1578 59.816 50.8126 59.816 50.3361C59.816 50.0443 59.7858 49.6359 59.7254 49.1108C59.6249 48.0021 59.5595 47.2582 59.5299 46.8789C59.2888 47.6472 58.8818 48.5662 58.3096 49.6358C58.5403 49.7526 58.6561 49.9227 58.6561 50.1464C58.6561 50.3312 58.5908 50.4965 58.4601 50.6424C58.3398 50.7883 58.1839 50.8612 57.9933 50.8612C57.7824 50.8612 57.6468 50.798 57.5864 50.6716C57.5864 51.0216 57.6567 51.2793 57.7973 51.4447C57.9477 51.61 58.1839 51.6926 58.5051 51.6926Z" fill="#7F5539"/>
<path d="M35.8865 18.3009C33.0793 16.687 29.7214 16.2133 26.5516 16.984C23.3818 17.7548 20.6598 19.7067 18.9842 22.4106C17.3086 25.1145 16.8168 28.3487 17.617 31.4018C18.4172 34.4549 20.4437 37.0767 23.2509 38.6907L29.5687 28.4958L35.8865 18.3009Z" fill="#E8C2CA"/>
<path d="M19.7071 44.2602C17.5406 43.0266 15.649 41.3922 14.1413 39.4513C12.6335 37.5103 11.5395 35.3011 10.9222 32.951C10.3049 30.601 10.1766 28.1565 10.5445 25.7584C10.9126 23.3604 11.7697 21.0561 13.0664 18.9786C14.3631 16.901 16.0739 15.0911 18.1001 13.6533C20.1264 12.2154 22.428 11.178 24.8724 10.6008C27.3168 10.0237 29.8556 9.91809 32.3425 10.2903C34.8295 10.6624 37.2154 11.505 39.3627 12.7693L36.0363 18.0106C34.6069 17.169 33.0188 16.6082 31.3634 16.3604C29.708 16.1127 28.0181 16.183 26.391 16.5672C24.7639 16.9514 23.2319 17.6419 21.8831 18.599C20.5343 19.5561 19.3956 20.7608 18.5324 22.1437C17.6693 23.5267 17.0988 25.0604 16.8538 26.6567C16.6088 28.2529 16.6943 29.88 17.1052 31.4443C17.5161 33.0086 18.2443 34.4791 19.2479 35.7711C20.2515 37.0631 21.5107 38.151 22.9528 38.9722L19.7071 44.2602Z" fill="#D1B3C4"/>
<path d="M14.455 52.9635C7.73332 49.0972 2.87881 42.8201 0.956783 35.51C-0.965244 28.1999 0.202221 20.4539 4.20297 13.972C8.20373 7.49003 14.7109 2.80161 22.2965 0.935642C29.8821 -0.930329 37.9265 0.178566 44.6642 4.01898L39.6309 12.2114C35.1461 9.65505 29.7914 8.91691 24.7421 10.159C19.6928 11.401 15.3614 14.5218 12.6983 18.8365C10.0353 23.1511 9.25817 28.3071 10.5375 33.173C11.8169 38.0389 15.0483 42.2172 19.5224 44.7909L14.455 52.9635Z" fill="#B392AC"/>
</g>
<defs>
<clipPath id="clip0_559_1422">
<rect width="62" height="53" fill="white"/>
</clipPath>
</defs>
</svg>
